<?xml version="1.0" encoding="UTF-8" standalone="no"?>
<svg
   xmlns:dc="http://purl.org/dc/elements/1.1/"
   xmlns:cc="http://creativecommons.org/ns#"
   xmlns:rdf="http://www.w3.org/1999/02/22-rdf-syntax-ns#"
   xmlns:svg="http://www.w3.org/2000/svg"
   xmlns="http://www.w3.org/2000/svg"
   xmlns:sodipodi="http://sodipodi.sourceforge.net/DTD/sodipodi-0.dtd"
   xmlns:inkscape="http://www.inkscape.org/namespaces/inkscape"
   version="1.1"
   x="0px"
   y="0px"
   viewBox="0 0 1000 1098.9898"
   enable-background="new 0 0 64 64"
   xml:space="preserve"
   id="svg106"
   sodipodi:docname="coding.svg"
   width="1000"
   height="1098.9897"
   inkscape:version="0.92.5 (2060ec1f9f, 2020-04-08)"><metadata
     id="metadata112"><rdf:RDF><cc:Work
         rdf:about=""><dc:format>image/svg+xml</dc:format><dc:type
           rdf:resource="http://purl.org/dc/dcmitype/StillImage" /><dc:title></dc:title></cc:Work></rdf:RDF></metadata><defs
     id="defs110" /><sodipodi:namedview
     pagecolor="#505050"
     bordercolor="#eeeeee"
     borderopacity="1"
     objecttolerance="10"
     gridtolerance="10"
     guidetolerance="10"
     inkscape:pageopacity="0"
     inkscape:pageshadow="2"
     inkscape:window-width="1920"
     inkscape:window-height="1016"
     id="namedview108"
     showgrid="false"
     fit-margin-top="0"
     fit-margin-left="0"
     fit-margin-right="0"
     fit-margin-bottom="0"
     inkscape:zoom="0.46093749"
     inkscape:cx="362.79575"
     inkscape:cy="852.13273"
     inkscape:window-x="0"
     inkscape:window-y="27"
     inkscape:window-maximized="1"
     inkscape:current-layer="svg106" /><path
     d="m 990.53226,237.4575 c -6.09674,-6.08064 -14.19358,-9.43548 -22.7903,-9.43548 H 516.12904 v -16.12904 c 0,-12.91934 -5.0484,-25.08064 -14.17742,-34.20968 -9.12904,-9.14514 -21.29032,-14.1774 -34.20968,-14.1774 h -96.7742 c -4.30644,0 -8.35484,-1.67742 -11.40322,-4.72582 -3.0484,-3.04838 -4.7258,-7.09676 -4.7258,-11.40322 0,-4.30646 1.6774,-8.35484 4.7258,-11.40322 3.04838,-3.0484 7.09678,-4.72582 11.40322,-4.72582 l 119.33812,0 c 12.9355,0 25.09678,-5.04838 34.22582,-14.1774 9.12904,-9.12904 14.16128,-21.306456 14.16128,-34.209676 V 0 H 506.4349 v 82.860744 c 0,4.30644 -1.67742,8.35482 -4.74194,11.41934 -3.03226,3.03226 -7.0645,4.70968 -11.3871,4.70968 l -119.33812,0 c -12.91936,0 -25.08064,5.032256 -34.20968,14.177416 -9.14516,9.12904 -14.17742,21.29032 -14.17742,34.20968 0,12.91936 5.03226,25.08064 14.17742,34.20968 9.12904,9.14516 21.29032,14.17742 34.20968,14.17742 h 96.7742 c 4.30644,0 8.35482,1.67742 11.40322,4.7258 3.0484,3.04838 4.7258,7.09678 4.7258,11.40322 v 16.12904 H 32.258064 c -8.612902,0 -16.709677,3.35484 -22.806451,9.45162 C 3.3548386,243.5704 0,251.66718 0,260.28008 V 615.1188 c 0,8.59676 3.3548386,16.69354 9.435484,22.79032 6.080645,6.1129 14.193548,9.46774 22.82258,9.46774 h 64.516132 v 164.2258 l 48.387094,129.03226 v 33.79033 c -2.38709,1.40322 -4.69355,2.99999 -6.69355,5.01613 -6.08064,6.08064 -9.43548,14.17741 -9.43548,22.77422 v 96.7742 h 32.25806 v -96.7742 h 193.5484 v 96.7742 h 32.25806 v -96.7742 c 0,-8.59681 -3.35484,-16.69358 -9.4355,-22.79035 -2.01612,-2.01614 -4.30644,-3.61291 -6.69354,-5.01613 v -30.20968 c 18.08064,-19.19355 80.64516,-90.09678 80.64516,-151.32258 v -80.98388 c 0,-12.93548 -5.04838,-25.09676 -14.17742,-34.2258 -13.14516,-13.12904 -33.25806,-16.66128 -50.3387,-10.91936 v -19.37096 h 225.80644 v 19.3871 c -17.09676,-5.74194 -37.20968,-2.22582 -50.3387,10.91934 -9.12904,9.12904 -14.17742,21.29032 -14.17742,34.20968 v 80.98388 c 0,61.2258 62.56452,132.1129 80.64516,151.32258 v 30.20968 c -2.3871,1.40322 -4.67742,2.99999 -6.67742,5 -6.09678,6.09677 -9.45162,14.19354 -9.45162,22.80648 v 96.7742 h 32.25806 v -96.7742 h 193.54838 v 96.7742 h 32.25806 v -96.7742 c 0,-8.61294 -3.3548,-16.70971 -9.45156,-22.80648 -2,-2.00001 -4.29038,-3.59678 -6.67748,-5 V 940.61879 L 903.22576,811.58654 V 647.37686 h 64.5162 c 8.6129,0 16.70966,-3.35484 22.80642,-9.45162 C 996.64512,631.82848 1000,623.7317 1000,615.1188 V 260.28008 c 0,-8.62904 -3.35488,-16.74194 -9.46774,-22.82258 z m -598.7258,463.04838 c 6.1129,-6.1129 16.70968,-6.1129 22.82258,0 3.04838,3.03228 4.7258,7.06452 4.7258,11.3871 v 80.98388 c 0,47.04838 -54.80646,112.25807 -75.93548,133.40322 l -4.70968,4.74194 v 38.93549 H 177.41936 V 934.76395 L 129.03226,805.7317 V 598.98976 c 0,-4.30646 1.67742,-8.35484 4.7258,-11.40322 6.09677,-6.09678 16.70968,-6.09678 22.80646,0 3.04839,3.04838 4.7258,7.09676 4.7258,11.40322 v 96.7742 h 32.25807 v -96.7742 -32.25806 c 0,-4.30646 1.67742,-8.35484 4.72579,-11.40322 6.0968,-6.09678 16.7097,-6.09678 22.80646,0 3.0484,3.04838 4.72582,7.09676 4.72582,11.40322 v 129.03226 h 32.25806 V 566.7317 534.47364 c 0,-4.30646 1.67742,-8.35484 4.7258,-11.40324 6.09678,-6.09676 16.70968,-6.09676 22.80644,0 3.0484,3.0484 4.72582,7.09678 4.72582,11.40324 v 32.25806 129.03226 h 32.25806 V 566.7317 c 0,-4.30646 1.67742,-8.35484 4.72582,-11.40322 6.09676,-6.09678 16.70966,-6.09678 22.80644,0 3.04838,3.04838 4.72582,7.09676 4.72582,11.40322 v 209.67742 h 32.25806 v -64.51614 c 0,-4.32258 1.6774,-8.35482 4.70968,-11.3871 z M 870.96772,805.7317 822.58064,934.76396 v 35.19355 H 661.29032 v -38.93549 l -4.7258,-4.72581 C 635.4516,905.13493 580.64516,839.92524 580.64516,792.87686 v -80.98388 c 0,-4.30644 1.67742,-8.35482 4.7258,-11.40322 6.11292,-6.08064 16.69356,-6.08064 22.80646,0 3.04838,3.0484 4.7258,7.09678 4.7258,11.40322 v 64.51614 h 32.25806 V 566.7317 c 0,-4.30646 1.67742,-8.35484 4.74194,-11.41936 6.08064,-6.08064 16.69354,-6.08064 22.7742,0 3.06452,3.06452 4.74194,7.1129 4.74194,11.41936 v 129.03226 h 32.25806 V 566.7317 534.47364 c 0,-4.30646 1.67742,-8.35484 4.74194,-11.41936 6.08064,-6.08064 16.69354,-6.08064 22.77418,0 3.06452,3.06452 4.74194,7.1129 4.74194,11.41936 v 32.25806 129.03226 h 32.25806 V 566.7317 c 0,-4.30646 1.67742,-8.35484 4.74194,-11.41936 6.08064,-6.08064 16.69356,-6.08064 22.7742,0 3.06452,3.06452 4.74194,7.1129 4.74194,11.41936 v 32.25806 96.7742 h 32.25804 v -96.7742 c 0,-4.30646 1.67744,-8.35484 4.74196,-11.41936 6.08064,-6.08064 16.69358,-6.08064 22.77422,0 3.06452,3.06452 4.74188,7.1129 4.74188,11.41936 z m 96.77424,-190.6129 h -64.5162 v -16.12904 c 0,-12.90322 -5.03224,-25.06452 -14.16122,-34.20968 -13.58064,-13.59678 -34.6936,-17.04838 -52.14522,-10.41936 -2.1613,-8.16128 -6.24192,-15.70966 -12.37096,-21.8387 -13.58066,-13.59678 -34.69352,-17.04838 -52.14514,-10.41936 -2.16128,-8.16128 -6.24194,-15.70968 -12.37096,-21.8387 -18.2742,-18.29032 -50.17742,-18.29032 -68.45162,0 -6.12902,6.12902 -10.20968,13.67742 -12.37096,21.8387 -17.45162,-6.62902 -38.56452,-3.17742 -52.14516,10.41936 -9.12904,9.14516 -14.1613,21.30646 -14.1613,34.20968 v 48.3871 H 387.09678 v -48.3871 c 0,-12.91936 -5.03226,-25.08064 -14.17742,-34.20968 -13.58064,-13.59678 -34.69356,-17.04838 -52.12904,-10.41936 -2.16128,-8.16128 -6.24194,-15.70968 -12.3871,-21.8387 -18.27418,-18.29032 -50.14516,-18.29032 -68.41934,0 -6.12904,6.12902 -10.22582,13.67742 -12.3871,21.8387 -17.45162,-6.62902 -38.5484,-3.17742 -52.12904,10.41936 -6.12903,6.12904 -10.22581,13.67742 -12.38709,21.8387 -17.45161,-6.62902 -38.54839,-3.17742 -52.12904,10.41936 -9.14516,9.12904 -14.177414,21.29032 -14.177414,34.20968 V 615.1188 H 32.258064 V 260.28008 H 967.74196 Z"
     id="path2"
     inkscape:connector-curvature="0"
     style="fill:#ffa69e;fill-opacity:1;stroke-width:1"
     sodipodi:nodetypes="cscscsscscsscsccsssscscsssscscsscscccccsccccccscccssccccccsscccsccccccscccccsssscscssccccccsscscccsccscccscsscccscssccssccccccssccsccsscscccsssscccsssscccsssscccsccccccccsccsccccccccsccccc" /><rect
     x="677.41931"
     y="1034.4736"
     width="32.258064"
     height="32.258064"
     id="rect4"
     style="fill:#62959c;fill-opacity:1;stroke-width:1" /><rect
     x="290.3226"
     y="1034.4736"
     width="32.258064"
     height="32.258064"
     id="rect6"
     style="fill:#62959c;fill-opacity:1;stroke-width:1" /><rect
     x="96.774193"
     y="292.53815"
     width="32.258064"
     height="32.258064"
     id="rect8"
     style="fill:#62959c;fill-opacity:1;stroke-width:1" /><rect
     x="161.29031"
     y="292.53815"
     width="32.258064"
     height="32.258064"
     id="rect10"
     style="fill:#62959c;fill-opacity:1;stroke-width:1" /><rect
     x="225.80644"
     y="292.53815"
     width="32.258064"
     height="32.258064"
     id="rect12"
     style="fill:#62959c;fill-opacity:1;stroke-width:1" /><rect
     x="290.3226"
     y="292.53815"
     width="32.258064"
     height="32.258064"
     id="rect14"
     style="fill:#62959c;fill-opacity:1;stroke-width:1" /><rect
     x="354.83871"
     y="292.53815"
     width="32.258064"
     height="32.258064"
     id="rect16"
     style="fill:#62959c;fill-opacity:1;stroke-width:1" /><rect
     x="419.35486"
     y="292.53815"
     width="32.258064"
     height="32.258064"
     id="rect18"
     style="fill:#62959c;fill-opacity:1;stroke-width:1" /><rect
     x="483.87097"
     y="292.53815"
     width="32.258064"
     height="32.258064"
     id="rect20"
     style="fill:#62959c;fill-opacity:1;stroke-width:1" /><rect
     x="548.38708"
     y="292.53815"
     width="32.258064"
     height="32.258064"
     id="rect22"
     style="fill:#62959c;fill-opacity:1;stroke-width:1" /><rect
     x="612.90326"
     y="292.53815"
     width="32.258064"
     height="32.258064"
     id="rect24"
     style="fill:#62959c;fill-opacity:1;stroke-width:1" /><rect
     x="677.41931"
     y="292.53815"
     width="32.258064"
     height="32.258064"
     id="rect26"
     style="fill:#62959c;fill-opacity:1;stroke-width:1" /><rect
     x="741.93549"
     y="292.53815"
     width="32.258064"
     height="32.258064"
     id="rect28"
     style="fill:#62959c;fill-opacity:1;stroke-width:1" /><rect
     x="806.4516"
     y="292.53815"
     width="32.258064"
     height="32.258064"
     id="rect30"
     style="fill:#62959c;fill-opacity:1;stroke-width:1" /><rect
     x="870.96771"
     y="292.53815"
     width="32.258064"
     height="32.258064"
     id="rect32"
     style="fill:#62959c;fill-opacity:1;stroke-width:1" /><rect
     x="64.516129"
     y="357.05426"
     width="32.258064"
     height="32.258064"
     id="rect34"
     style="fill:#62959c;fill-opacity:1;stroke-width:1" /><rect
     x="129.03226"
     y="357.05426"
     width="32.258064"
     height="32.258064"
     id="rect36"
     style="fill:#62959c;fill-opacity:1;stroke-width:1" /><rect
     x="193.54839"
     y="357.05426"
     width="32.258064"
     height="32.258064"
     id="rect38"
     style="fill:#62959c;fill-opacity:1;stroke-width:1" /><rect
     x="258.06451"
     y="357.05426"
     width="32.258064"
     height="32.258064"
     id="rect40"
     style="fill:#62959c;fill-opacity:1;stroke-width:1" /><rect
     x="322.58063"
     y="357.05426"
     width="32.258064"
     height="32.258064"
     id="rect42"
     style="fill:#62959c;fill-opacity:1;stroke-width:1" /><rect
     x="387.09677"
     y="357.05426"
     width="32.258064"
     height="32.258064"
     id="rect44"
     style="fill:#62959c;fill-opacity:1;stroke-width:1" /><rect
     x="451.61288"
     y="357.05426"
     width="32.258064"
     height="32.258064"
     id="rect46"
     style="fill:#62959c;fill-opacity:1;stroke-width:1" /><rect
     x="516.12903"
     y="357.05426"
     width="32.258064"
     height="32.258064"
     id="rect48"
     style="fill:#62959c;fill-opacity:1;stroke-width:1" /><rect
     x="580.6452"
     y="357.05426"
     width="32.258064"
     height="32.258064"
     id="rect50"
     style="fill:#62959c;fill-opacity:1;stroke-width:1" /><rect
     x="645.16125"
     y="357.05426"
     width="32.258064"
     height="32.258064"
     id="rect52"
     style="fill:#62959c;fill-opacity:1;stroke-width:1" /><rect
     x="709.67743"
     y="357.05426"
     width="32.258064"
     height="32.258064"
     id="rect54"
     style="fill:#62959c;fill-opacity:1;stroke-width:1" /><rect
     x="774.19354"
     y="357.05426"
     width="32.258064"
     height="32.258064"
     id="rect56"
     style="fill:#62959c;fill-opacity:1;stroke-width:1" /><rect
     x="838.70966"
     y="357.05426"
     width="32.258064"
     height="32.258064"
     id="rect58"
     style="fill:#62959c;fill-opacity:1;stroke-width:1" /><rect
     x="903.22577"
     y="357.05426"
     width="32.258064"
     height="32.258064"
     id="rect60"
     style="fill:#62959c;fill-opacity:1;stroke-width:1" /><rect
     x="96.774193"
     y="421.57037"
     width="32.258064"
     height="32.258064"
     id="rect62"
     style="fill:#62959c;fill-opacity:1;stroke-width:1" /><rect
     x="161.29031"
     y="421.57037"
     width="32.258064"
     height="32.258064"
     id="rect64"
     style="fill:#62959c;fill-opacity:1;stroke-width:1" /><rect
     x="225.80644"
     y="421.57037"
     width="32.258064"
     height="32.258064"
     id="rect66"
     style="fill:#62959c;fill-opacity:1;stroke-width:1" /><rect
     x="290.3226"
     y="421.57037"
     width="32.258064"
     height="32.258064"
     id="rect68"
     style="fill:#62959c;fill-opacity:1;stroke-width:1" /><rect
     x="354.83871"
     y="421.57037"
     width="32.258064"
     height="32.258064"
     id="rect70"
     style="fill:#62959c;fill-opacity:1;stroke-width:1" /><rect
     x="419.35486"
     y="421.57037"
     width="32.258064"
     height="32.258064"
     id="rect72"
     style="fill:#62959c;fill-opacity:1;stroke-width:1" /><rect
     x="483.87097"
     y="421.57037"
     width="32.258064"
     height="32.258064"
     id="rect74"
     style="fill:#62959c;fill-opacity:1;stroke-width:1" /><rect
     x="548.38708"
     y="421.57037"
     width="32.258064"
     height="32.258064"
     id="rect76"
     style="fill:#62959c;fill-opacity:1;stroke-width:1" /><rect
     x="612.90326"
     y="421.57037"
     width="32.258064"
     height="32.258064"
     id="rect78"
     style="fill:#62959c;fill-opacity:1;stroke-width:1" /><rect
     x="677.41931"
     y="421.57037"
     width="32.258064"
     height="32.258064"
     id="rect80"
     style="fill:#62959c;fill-opacity:1;stroke-width:1" /><rect
     x="741.93549"
     y="421.57037"
     width="32.258064"
     height="32.258064"
     id="rect82"
     style="fill:#62959c;fill-opacity:1;stroke-width:1" /><rect
     x="806.4516"
     y="421.57037"
     width="32.258064"
     height="32.258064"
     id="rect84"
     style="fill:#62959c;fill-opacity:1;stroke-width:1" /><rect
     x="870.96771"
     y="421.57037"
     width="32.258064"
     height="32.258064"
     id="rect86"
     style="fill:#62959c;fill-opacity:1;stroke-width:1" /><rect
     x="64.516129"
     y="486.08655"
     width="32.258064"
     height="32.258064"
     id="rect88"
     style="fill:#62959c;fill-opacity:1;stroke-width:1" /><rect
     x="129.03226"
     y="486.08655"
     width="32.258064"
     height="32.258064"
     id="rect90"
     style="fill:#62959c;fill-opacity:1;stroke-width:1" /><rect
     x="387.09677"
     y="486.08655"
     width="32.258064"
     height="32.258064"
     id="rect92"
     style="fill:#62959c;fill-opacity:1;stroke-width:1" /><rect
     x="451.61288"
     y="486.08655"
     width="32.258064"
     height="32.258064"
     id="rect94"
     style="fill:#62959c;fill-opacity:1;stroke-width:1" /><rect
     x="516.12903"
     y="486.08655"
     width="32.258064"
     height="32.258064"
     id="rect96"
     style="fill:#62959c;fill-opacity:1;stroke-width:1" /><rect
     x="580.6452"
     y="486.08655"
     width="32.258064"
     height="32.258064"
     id="rect98"
     style="fill:#62959c;fill-opacity:1;stroke-width:1" /><rect
     x="838.70966"
     y="486.08655"
     width="32.258064"
     height="32.258064"
     id="rect100"
     style="fill:#62959c;fill-opacity:1;stroke-width:1" /><rect
     x="903.22577"
     y="486.08655"
     width="32.258064"
     height="32.258064"
     id="rect102"
     style="fill:#62959c;fill-opacity:1;stroke-width:1" /><rect
     x="419.35486"
     y="550.60266"
     width="161.29031"
     height="32.258064"
     id="rect104"
     style="fill:#62959c;fill-opacity:1;stroke-width:1" /></svg>