<svg xmlns="http://www.w3.org/2000/svg" data-name="Layer 1" viewBox="0 0 512 512" x="0px" y="0px"><title>Hand</title><g data-name="Group"><path data-name="Compound Path" d="M471.089,102.33a8,8,0,0,0-8.68-6.71,36.047,36.047,0,0,0-32.543,37.636l1.44,58.937a45.258,45.258,0,0,0-36.369,25.553L373.4,262.967a51.828,51.828,0,0,1-14.291,18.049l-4.475,3.589a90.922,90.922,0,0,0-34.119,75.235l-8.8-4.19a8,8,0,0,0-10.662,3.783L277.438,409.02a8,8,0,0,0,3.783,10.663l108.816,51.825a7.994,7.994,0,0,0,10.662-3.783l23.617-49.587a8,8,0,0,0-3.783-10.663l-4.642-2.211-1.161-15.512a23.414,23.414,0,0,1,5.326-16.74l56.351-68.191q.171-.207.327-.424a93.509,93.509,0,0,0,17.479-55.673,7.932,7.932,0,0,0-.1-1.131Zm-81.4,351.293-94.371-44.946,16.738-35.142,94.371,44.945ZM463.9,294.84l-56.176,67.979a39.349,39.349,0,0,0-8.947,28.127l.479,6.394L337.4,367.882a75.02,75.02,0,0,1,27.242-70.794l4.475-3.589a67.931,67.931,0,0,0,18.728-23.652l21.537-45.222a29.29,29.29,0,0,1,31.271-16.26l-31.484,66.106a8,8,0,0,0,14.445,6.88l35.4-74.333a8,8,0,0,0-3.784-10.663,45.222,45.222,0,0,0-7.891-2.885l-1.483-60.7c0-.07,0-.14-.007-.209a20.068,20.068,0,0,1,10.836-18.875l21.534,135.838A77.435,77.435,0,0,1,463.9,294.84Z"></path><path data-name="Compound Path" d="M97.27,389.752l-1.161,15.512-4.642,2.211a8,8,0,0,0-3.783,10.663L111.3,467.725a7.994,7.994,0,0,0,10.662,3.783l108.816-51.825a8,8,0,0,0,3.783-10.663l-23.616-49.587a8,8,0,0,0-10.662-3.783l-8.8,4.19a90.921,90.921,0,0,0-34.118-75.235l-4.477-3.589a51.837,51.837,0,0,1-14.29-18.049l-21.538-45.221a45.252,45.252,0,0,0-36.369-25.553l1.44-58.937A36.047,36.047,0,0,0,49.591,95.62a8,8,0,0,0-8.68,6.71L17.885,247.593a7.932,7.932,0,0,0-.1,1.131A93.509,93.509,0,0,0,35.266,304.4q.156.217.327.424l56.351,68.191A23.414,23.414,0,0,1,97.27,389.752Zm119.408,18.925-94.371,44.946L105.569,418.48l94.371-44.945ZM33.778,249.522,55.312,113.684a20.068,20.068,0,0,1,10.836,18.875c0,.069,0,.139-.007.209l-1.483,60.7a45.308,45.308,0,0,0-7.891,2.886,8,8,0,0,0-3.784,10.663l35.4,74.333a8,8,0,0,0,14.445-6.88L71.347,208.365a29.292,29.292,0,0,1,31.271,16.26l21.537,45.221A67.934,67.934,0,0,0,142.882,293.5l4.477,3.589A75.022,75.022,0,0,1,174.6,367.882L112.746,397.34l.479-6.394a39.349,39.349,0,0,0-8.947-28.127L48.1,294.84A77.435,77.435,0,0,1,33.778,249.522Z"></path><polygon data-name="Path" points="210.832 180.767 160.185 130.12 210.832 79.473 199.518 68.16 137.558 130.12 199.518 192.081 210.832 180.767"></polygon><polygon data-name="Path" points="312.482 192.081 374.442 130.12 312.482 68.16 301.168 79.473 351.815 130.12 301.168 180.767 312.482 192.081"></polygon><rect data-name="Path" x="164.492" y="122.12" width="183.015" height="16.001" transform="translate(63.324 343.06) rotate(-74.803)"></rect></g></svg>