<svg xmlns="http://www.w3.org/2000/svg" xmlns:xlink="http://www.w3.org/1999/xlink" version="1.1" x="0px" y="0px" viewBox="0 0 100 100" enable-background="new 0 0 100 100" xml:space="preserve"><g><path fill="none" stroke="#000000" stroke-width="1.5" stroke-linecap="round" stroke-linejoin="round" stroke-miterlimit="10" d="   M15.343,74.137c-0.734-2.643-0.417-6.224-0.417-8.998c0-1.981-0.182-3.92-0.102-5.902c0.075-1.863,0.184-3.78,0.185-5.612   c0.002-1.878,0.075-9.654,0-10.487c-0.173-1.936-0.164-3.627-0.081-5.583c0.072-1.688,0.288-3.586,0.146-5.25   c-0.209-2.449-0.271-6.077,3.524-5.898c0,0,9.698,0.351,11.74,0.233c2.737-0.157,5.425-0.252,8.19-0.252c3.249,0,16.203,0,19.501,0   c3.255,0,6.522,0.253,9.769,0.167c2.848-0.075,12.625-0.158,14.627,0.004c1.56,0.127,2.68,0.116,3.148,1.848   c0.387,1.43,0.252,14.515,0.185,16.146c-0.127,3.097-0.392,17.868-0.249,19.59c0.244,2.957,0.195,6.254-0.084,9.579"></path><path fill="none" stroke="#000000" stroke-width="1.5" stroke-linecap="round" stroke-linejoin="round" stroke-miterlimit="10" d="   M80.827,74.635c-2.964,0.212-14.642,0.086-17.536,0.086c-3.981,0-20.626-0.068-24.924,0.102c-4.326,0.171-8.545-0.431-12.848-0.436   c-2.972-0.003-5.915,0.492-8.873,0.023c-0.95-0.15-4.17,0.326-4.878,0.061l-4.667-0.167c0.699,1.529,4.208,1.512,5.602,1.686   c2.51,0.312,13.265,0.438,14.88,0.5c3.143,0.121,6.225,0.089,9.37-0.023c6.888-0.245,13.682,0.088,20.553,0.088   c4.229,0,8.45-0.25,12.68-0.25c2.16,0,4.342,0.089,6.497,0.171c1.172,0.045,11.662-0.544,12.835-0.588   c1.498-0.056,2.663-0.473,3.987-1.267c0.101-0.235-0.061-0.135-0.154-0.233C93.353,74.387,81.779,74.567,80.827,74.635z"></path><path fill="none" stroke="#000000" stroke-width="1.5" stroke-linecap="round" stroke-linejoin="round" stroke-miterlimit="10" d="   M19.013,70.554c1.312,0.357,2.855,0.199,4.25,0.314c2.278,0.188,4.565,0.037,6.898,0.019c5.849-0.045,24.103-0.083,27.34-0.083   c2.812,0,5.626,0.355,8.428,0.249c4.833-0.183,9.75-0.177,14.583-0.166c0.88,0.002,1.719-0.232,2.584-0.166   c0,0,0.277-4.738,0.167-6.086c-0.154-1.887-0.011-3.666-0.083-5.583c-0.13-3.422-0.033-6.92-0.167-10.331   c-0.12-3.079,0.156-6.097,0-9.167c-0.073-1.445,0.077-2.627-0.162-4.085c-0.156-0.954,0.246-5.582,0.246-5.582   c-3.338-0.01-6.704-0.321-10.106-0.088c-2.202,0.151-11.075,0.422-13.309,0.422c-5.183,0-10.341-0.167-15.5-0.167   c-2.735,0-5.447,0.256-8.173,0.25c-2.276-0.005-18.33-0.333-18.33-0.333c0,2.077,0.004,4.154,0,6.231   c-0.004,2.217-0.108,4.488-0.019,6.683c0.049,1.208-0.047,6.153-0.152,7.506c-0.205,2.645-0.205,5.429-0.019,8.097   c0.165,2.363,0.278,4.854,0.273,7.217c-0.003,1.472-0.152,3.773,0.083,4.85H19.013z"></path><g><path fill="none" stroke="#000000" stroke-width="1.5" stroke-linecap="round" stroke-linejoin="round" stroke-miterlimit="10" d="    M39.323,45.017c-1.414,1.798-4.182,4.417-6.649,6.166c2.179,1.893,4.958,4.977,6.649,7.34"></path><path fill="none" stroke="#000000" stroke-width="1.5" stroke-linecap="round" stroke-linejoin="round" stroke-miterlimit="10" d="    M63.104,58.816c1.559-2.416,4.616-4.555,6.494-7.046c-1.855-1.56-4.292-5.138-6.787-7.046"></path><path fill="none" stroke="#000000" stroke-width="1.5" stroke-linecap="round" stroke-linejoin="round" stroke-miterlimit="10" d="    M47.25,62.339c1.101-5.332,7.2-17.322,7.634-21.726"></path></g></g></svg>